<mxfile host="app.diagrams.net" agent="Mozilla/5.0 (Windows NT 10.0; Win64; x64) AppleWebKit/537.36 (KHTML, like Gecko) Chrome/127.0.0.0 Safari/537.36 Edg/127.0.0.0" version="24.7.7">
  <diagram name="Page-1" id="9W-sOv-dYj6pa3i9w2rR">
    <mxGraphModel dx="1426" dy="749" grid="1" gridSize="10" guides="1" tooltips="1" connect="1" arrows="1" fold="1" page="1" pageScale="1" pageWidth="850" pageHeight="1100" math="0" shadow="0">
      <root>
        <mxCell id="0" />
        <mxCell id="1" parent="0" />
        <mxCell id="18TPVLA24jC4sj1wfvUi-20" value="" style="rounded=0;whiteSpace=wrap;html=1;" parent="1" vertex="1">
          <mxGeometry x="311" y="773" width="230" height="160" as="geometry" />
        </mxCell>
        <mxCell id="18TPVLA24jC4sj1wfvUi-3" style="edgeStyle=orthogonalEdgeStyle;rounded=0;orthogonalLoop=1;jettySize=auto;html=1;exitX=0.5;exitY=1;exitDx=0;exitDy=0;" parent="1" source="18TPVLA24jC4sj1wfvUi-1" target="18TPVLA24jC4sj1wfvUi-2" edge="1">
          <mxGeometry relative="1" as="geometry" />
        </mxCell>
        <mxCell id="18TPVLA24jC4sj1wfvUi-1" value="MESH_driver.f90" style="rounded=1;whiteSpace=wrap;html=1;fillColor=#FFCCCC;" parent="1" vertex="1">
          <mxGeometry x="372" y="30" width="120" height="60" as="geometry" />
        </mxCell>
        <mxCell id="18TPVLA24jC4sj1wfvUi-27" value="" style="edgeStyle=orthogonalEdgeStyle;rounded=0;orthogonalLoop=1;jettySize=auto;html=1;entryX=1;entryY=0.8;entryDx=0;entryDy=0;entryPerimeter=0;" parent="1" source="18TPVLA24jC4sj1wfvUi-2" target="18TPVLA24jC4sj1wfvUi-29" edge="1">
          <mxGeometry relative="1" as="geometry">
            <mxPoint x="235" y="180" as="targetPoint" />
          </mxGeometry>
        </mxCell>
        <mxCell id="18TPVLA24jC4sj1wfvUi-2" value="MESH_Driver/&lt;div&gt;read_initial_inputs.f90&lt;/div&gt;" style="whiteSpace=wrap;html=1;rounded=1;fillColor=#CCFFCC;" parent="1" vertex="1">
          <mxGeometry x="342" y="150" width="180" height="60" as="geometry" />
        </mxCell>
        <mxCell id="18TPVLA24jC4sj1wfvUi-53" style="edgeStyle=orthogonalEdgeStyle;rounded=0;orthogonalLoop=1;jettySize=auto;html=1;exitX=1;exitY=0.5;exitDx=0;exitDy=0;" parent="1" source="18TPVLA24jC4sj1wfvUi-14" edge="1">
          <mxGeometry relative="1" as="geometry">
            <mxPoint x="600" y="863" as="targetPoint" />
          </mxGeometry>
        </mxCell>
        <mxCell id="18TPVLA24jC4sj1wfvUi-14" value="MESH_Driver/&lt;div&gt;sa_mesh_run_between_grid.f90&lt;/div&gt;&lt;div&gt;*&amp;nbsp;responsible for simulating water flow, diversion processes, and related phenomena within a watershed or river basin.*&lt;/div&gt;" style="whiteSpace=wrap;html=1;rounded=1;fillColor=#CCFFCC;" parent="1" vertex="1">
          <mxGeometry x="334" y="803" width="185" height="120" as="geometry" />
        </mxCell>
        <mxCell id="18TPVLA24jC4sj1wfvUi-21" value="" style="group" parent="1" vertex="1" connectable="0">
          <mxGeometry x="311" y="443" width="230" height="300" as="geometry" />
        </mxCell>
        <mxCell id="18TPVLA24jC4sj1wfvUi-18" value="&#xa;&lt;span style=&quot;color: rgb(0, 0, 0); font-family: Helvetica; font-size: 12px; font-style: normal; font-variant-ligatures: normal; font-variant-caps: normal; font-weight: 400; letter-spacing: normal; orphans: 2; text-align: center; text-indent: 0px; text-transform: none; widows: 2; word-spacing: 0px; -webkit-text-stroke-width: 0px; white-space: normal; background-color: rgb(251, 251, 251); text-decoration-thickness: initial; text-decoration-style: initial; text-decoration-color: initial; display: inline !important; float: none;&quot;&gt;RUNTILE == True&lt;/span&gt;&#xa;&#xa;" style="rounded=0;whiteSpace=wrap;html=1;" parent="18TPVLA24jC4sj1wfvUi-21" vertex="1">
          <mxGeometry y="-13.930000000000001" width="230" height="313.93" as="geometry" />
        </mxCell>
        <mxCell id="18TPVLA24jC4sj1wfvUi-9" style="edgeStyle=orthogonalEdgeStyle;rounded=0;orthogonalLoop=1;jettySize=auto;html=1;exitX=0.5;exitY=1;exitDx=0;exitDy=0;entryX=0.5;entryY=0;entryDx=0;entryDy=0;" parent="18TPVLA24jC4sj1wfvUi-21" source="18TPVLA24jC4sj1wfvUi-6" target="18TPVLA24jC4sj1wfvUi-7" edge="1">
          <mxGeometry relative="1" as="geometry" />
        </mxCell>
        <mxCell id="18TPVLA24jC4sj1wfvUi-6" value="MESH_Driver/&lt;div&gt;sa_mesh_run_within_tile.f90&lt;/div&gt;&lt;div&gt;*It sets up initial conditions, executes simulation steps, and exchanges necessary data between processes *&lt;/div&gt;" style="whiteSpace=wrap;html=1;rounded=1;fillColor=#CCFFCC;" parent="18TPVLA24jC4sj1wfvUi-21" vertex="1">
          <mxGeometry x="22" y="41.78571428571429" width="190" height="117.85714285714286" as="geometry" />
        </mxCell>
        <mxCell id="18TPVLA24jC4sj1wfvUi-7" value="&lt;div&gt;&lt;br&gt;MESH_Driver/&lt;div&gt;&lt;span style=&quot;background-color: initial;&quot;&gt;&amp;nbsp;&lt;/span&gt;&lt;span style=&quot;background-color: initial;&quot;&gt;sa_mesh_run_within_grid.f90&lt;/span&gt;&lt;/div&gt;&lt;/div&gt;&lt;div&gt;&lt;span style=&quot;background-color: initial;&quot;&gt;*P&lt;/span&gt;&lt;span style=&quot;background-color: initial;&quot;&gt;rocessing of various environmental variables and calculating averages for specific grid cells*&lt;/span&gt;&lt;/div&gt;" style="whiteSpace=wrap;html=1;rounded=1;fillColor=#CCFFCC;" parent="18TPVLA24jC4sj1wfvUi-21" vertex="1">
          <mxGeometry x="17" y="178.92857142857142" width="200" height="107.14285714285715" as="geometry" />
        </mxCell>
        <mxCell id="18TPVLA24jC4sj1wfvUi-19" value="&lt;span style=&quot;color: rgb(0, 0, 0); font-family: Helvetica; font-size: 12px; font-style: normal; font-variant-ligatures: normal; font-variant-caps: normal; font-weight: 400; letter-spacing: normal; orphans: 2; text-align: center; text-indent: 0px; text-transform: none; widows: 2; word-spacing: 0px; -webkit-text-stroke-width: 0px; white-space: normal; background-color: rgb(251, 251, 251); text-decoration-thickness: initial; text-decoration-style: initial; text-decoration-color: initial; display: inline !important; float: none;&quot;&gt;RUNTILE == True&lt;/span&gt;" style="text;whiteSpace=wrap;html=1;" parent="18TPVLA24jC4sj1wfvUi-21" vertex="1">
          <mxGeometry x="71" y="8.881784197001252e-16" width="100" height="32.142857142857146" as="geometry" />
        </mxCell>
        <mxCell id="18TPVLA24jC4sj1wfvUi-24" value="&lt;span style=&quot;color: rgb(0, 0, 0); font-family: Helvetica; font-size: 12px; font-style: normal; font-variant-ligatures: normal; font-variant-caps: normal; font-weight: 400; letter-spacing: normal; orphans: 2; text-align: center; text-indent: 0px; text-transform: none; widows: 2; word-spacing: 0px; -webkit-text-stroke-width: 0px; white-space: normal; background-color: rgb(251, 251, 251); text-decoration-thickness: initial; text-decoration-style: initial; text-decoration-color: initial; display: inline !important; float: none;&quot;&gt;RUNGRID == True&lt;/span&gt;" style="text;whiteSpace=wrap;html=1;" parent="1" vertex="1">
          <mxGeometry x="371" y="773" width="110" height="20" as="geometry" />
        </mxCell>
        <mxCell id="18TPVLA24jC4sj1wfvUi-25" style="edgeStyle=orthogonalEdgeStyle;rounded=0;orthogonalLoop=1;jettySize=auto;html=1;" parent="1" source="18TPVLA24jC4sj1wfvUi-18" target="18TPVLA24jC4sj1wfvUi-24" edge="1">
          <mxGeometry relative="1" as="geometry" />
        </mxCell>
        <mxCell id="18TPVLA24jC4sj1wfvUi-28" value="READ_RUN_OPTIONS" style="shape=table;startSize=40;container=1;collapsible=0;childLayout=tableLayout;fillColor=#D4E1F5;" parent="1" vertex="1">
          <mxGeometry x="40" y="100" width="240" height="294" as="geometry" />
        </mxCell>
        <mxCell id="18TPVLA24jC4sj1wfvUi-29" value="" style="shape=tableRow;horizontal=0;startSize=0;swimlaneHead=0;swimlaneBody=0;strokeColor=inherit;top=0;left=0;bottom=0;right=0;collapsible=0;dropTarget=0;fillColor=none;points=[[0,0.5],[1,0.5]];portConstraint=eastwest;" parent="18TPVLA24jC4sj1wfvUi-28" vertex="1">
          <mxGeometry y="40" width="240" height="50" as="geometry" />
        </mxCell>
        <mxCell id="18TPVLA24jC4sj1wfvUi-30" value="READ_SOIL_LEVELS" style="shape=partialRectangle;html=1;whiteSpace=wrap;connectable=0;strokeColor=default;overflow=hidden;fillColor=#D4E1F5;top=0;left=0;bottom=0;right=0;pointerEvents=1;strokeWidth=2;perimeterSpacing=1;" parent="18TPVLA24jC4sj1wfvUi-29" vertex="1">
          <mxGeometry width="240" height="50" as="geometry">
            <mxRectangle width="240" height="50" as="alternateBounds" />
          </mxGeometry>
        </mxCell>
        <mxCell id="18TPVLA24jC4sj1wfvUi-31" value="" style="shape=tableRow;horizontal=0;startSize=0;swimlaneHead=0;swimlaneBody=0;strokeColor=inherit;top=0;left=0;bottom=0;right=0;collapsible=0;dropTarget=0;fillColor=none;points=[[0,0.5],[1,0.5]];portConstraint=eastwest;" parent="18TPVLA24jC4sj1wfvUi-28" vertex="1">
          <mxGeometry y="90" width="240" height="40" as="geometry" />
        </mxCell>
        <mxCell id="18TPVLA24jC4sj1wfvUi-32" value="&lt;div&gt;&lt;br&gt;&lt;/div&gt;&lt;div&gt;CLASSD&lt;/div&gt;&lt;div&gt;&lt;br&gt;&lt;/div&gt;" style="shape=partialRectangle;html=1;whiteSpace=wrap;connectable=0;strokeColor=default;overflow=hidden;fillColor=#D4E1F5;top=0;left=0;bottom=0;right=0;pointerEvents=1;strokeWidth=2;perimeterSpacing=2;" parent="18TPVLA24jC4sj1wfvUi-31" vertex="1">
          <mxGeometry width="240" height="40" as="geometry">
            <mxRectangle width="240" height="40" as="alternateBounds" />
          </mxGeometry>
        </mxCell>
        <mxCell id="18TPVLA24jC4sj1wfvUi-39" value="" style="whiteSpace=wrap;html=1;fillColor=#CCFFCC;rounded=1;" parent="18TPVLA24jC4sj1wfvUi-31" vertex="1">
          <mxGeometry x="240" height="40" as="geometry">
            <mxRectangle width="NaN" height="40" as="alternateBounds" />
          </mxGeometry>
        </mxCell>
        <mxCell id="18TPVLA24jC4sj1wfvUi-35" value="" style="shape=tableRow;horizontal=0;startSize=0;swimlaneHead=0;swimlaneBody=0;strokeColor=inherit;top=0;left=0;bottom=0;right=0;collapsible=0;dropTarget=0;fillColor=none;points=[[0,0.5],[1,0.5]];portConstraint=eastwest;" parent="18TPVLA24jC4sj1wfvUi-28" vertex="1">
          <mxGeometry y="130" width="240" height="164" as="geometry" />
        </mxCell>
        <mxCell id="18TPVLA24jC4sj1wfvUi-36" value="&lt;span style=&quot;text-align: left;&quot;&gt;read_parameters&lt;/span&gt;&lt;div&gt;&lt;ul style=&quot;text-align: left;&quot;&gt;&lt;li&gt;&lt;font style=&quot;font-size: 10px;&quot;&gt;RUNCLASS35_variables&lt;/font&gt;&lt;/li&gt;&lt;li&gt;&lt;font style=&quot;font-size: 10px;&quot;&gt;irrigation_module&lt;/font&gt;&lt;/li&gt;&lt;li&gt;&lt;font style=&quot;font-size: 10px;&quot;&gt;WatRoute_old/WF_ROUTE_config.&lt;/font&gt;&lt;/li&gt;&lt;li&gt;&lt;font style=&quot;font-size: 10px;&quot;&gt;RPN_watroute/sa_mesh.../rte_module&lt;/font&gt;&lt;/li&gt;&lt;li&gt;&lt;font style=&quot;font-size: 10px;&quot;&gt;PBSM (Blowing Snow) module&amp;nbsp;&amp;nbsp;&lt;/font&gt;&lt;/li&gt;&lt;li&gt;&lt;font style=&quot;font-size: 10px;&quot;&gt;baseflow_module&lt;/font&gt;&lt;/li&gt;&lt;li&gt;&lt;font style=&quot;font-size: 10px;&quot;&gt;cropland_irrigation_variables&lt;/font&gt;&lt;/li&gt;&lt;li&gt;&lt;font style=&quot;font-size: 10px;&quot;&gt;&amp;nbsp;READ_PARAMETERS_*.f90&amp;nbsp;&lt;/font&gt;&lt;/li&gt;&lt;/ul&gt;&lt;/div&gt;" style="shape=partialRectangle;html=1;whiteSpace=wrap;connectable=0;strokeColor=inherit;overflow=hidden;fillColor=#FFE599;top=0;left=0;bottom=0;right=0;pointerEvents=1;" parent="18TPVLA24jC4sj1wfvUi-35" vertex="1">
          <mxGeometry width="240" height="164" as="geometry">
            <mxRectangle width="240" height="164" as="alternateBounds" />
          </mxGeometry>
        </mxCell>
        <mxCell id="18TPVLA24jC4sj1wfvUi-46" style="edgeStyle=orthogonalEdgeStyle;rounded=0;orthogonalLoop=1;jettySize=auto;html=1;exitX=0.5;exitY=1;exitDx=0;exitDy=0;" parent="1" source="18TPVLA24jC4sj1wfvUi-44" target="18TPVLA24jC4sj1wfvUi-18" edge="1">
          <mxGeometry relative="1" as="geometry" />
        </mxCell>
        <mxCell id="18TPVLA24jC4sj1wfvUi-44" value="reads&amp;nbsp;&lt;div&gt;MESH_drainage_database.r2c&lt;/div&gt;" style="rounded=1;whiteSpace=wrap;html=1;fillColor=#C3ABD0;" parent="1" vertex="1">
          <mxGeometry x="341.5" y="272" width="170" height="80" as="geometry" />
        </mxCell>
        <mxCell id="18TPVLA24jC4sj1wfvUi-45" style="edgeStyle=orthogonalEdgeStyle;rounded=0;orthogonalLoop=1;jettySize=auto;html=1;exitX=1;exitY=0.5;exitDx=0;exitDy=0;" parent="1" source="18TPVLA24jC4sj1wfvUi-35" target="18TPVLA24jC4sj1wfvUi-44" edge="1">
          <mxGeometry relative="1" as="geometry" />
        </mxCell>
        <mxCell id="18TPVLA24jC4sj1wfvUi-47" value="&lt;ul&gt;&lt;li&gt;&lt;font style=&quot;font-size: 10px;&quot;&gt;irrigation_module:&lt;/font&gt;&lt;font style=&quot;font-size: 10px;&quot;&gt;irrigation_within_tile&lt;/font&gt;&lt;/li&gt;&lt;li&gt;&lt;font style=&quot;font-size: 10px;&quot;&gt;mountain_within_tile&lt;br&gt;&lt;/font&gt;&lt;/li&gt;&lt;li&gt;&lt;font style=&quot;font-size: 10px;&quot;&gt;RUNCLASS36_config: RUNCLASS36_within_tile&lt;br&gt;&lt;/font&gt;&lt;/li&gt;&lt;li&gt;&lt;font style=&quot;font-size: 10px;&quot;&gt;runsvs_mesh:runsvs_mesh_within_tile&lt;br&gt;&lt;/font&gt;&lt;/li&gt;&lt;li&gt;&lt;font style=&quot;font-size: 10px;&quot;&gt;baseflow_module: bflm_within_tile&lt;br&gt;&lt;/font&gt;&lt;/li&gt;&lt;li&gt;&lt;font style=&quot;font-size: 10px;&quot;&gt;runci_within_tile&lt;/font&gt;&lt;/li&gt;&lt;/ul&gt;&lt;div&gt;&lt;ul&gt;&lt;li&gt;&lt;font style=&quot;font-size: 10px;&quot;&gt;irrigation_write_output&lt;/font&gt;&lt;/li&gt;&lt;/ul&gt;&lt;/div&gt;" style="whiteSpace=wrap;html=1;rounded=1;align=left;fillColor=#FFE599;" parent="1" vertex="1">
          <mxGeometry x="600" y="471" width="220" height="145" as="geometry" />
        </mxCell>
        <mxCell id="18TPVLA24jC4sj1wfvUi-48" style="edgeStyle=orthogonalEdgeStyle;rounded=0;orthogonalLoop=1;jettySize=auto;html=1;exitX=1;exitY=0.5;exitDx=0;exitDy=0;" parent="1" source="18TPVLA24jC4sj1wfvUi-6" target="18TPVLA24jC4sj1wfvUi-47" edge="1">
          <mxGeometry relative="1" as="geometry" />
        </mxCell>
        <mxCell id="18TPVLA24jC4sj1wfvUi-49" value="&lt;ul&gt;&lt;li&gt;baseflow_module: bflm_within_grid&lt;/li&gt;&lt;/ul&gt;" style="whiteSpace=wrap;html=1;rounded=1;fillColor=#FFE599;align=left;" parent="1" vertex="1">
          <mxGeometry x="600" y="641" width="190" height="67.5" as="geometry" />
        </mxCell>
        <mxCell id="18TPVLA24jC4sj1wfvUi-50" style="edgeStyle=orthogonalEdgeStyle;rounded=0;orthogonalLoop=1;jettySize=auto;html=1;exitX=1;exitY=0.5;exitDx=0;exitDy=0;" parent="1" source="18TPVLA24jC4sj1wfvUi-7" target="18TPVLA24jC4sj1wfvUi-49" edge="1">
          <mxGeometry relative="1" as="geometry" />
        </mxCell>
        <mxCell id="18TPVLA24jC4sj1wfvUi-51" value="&lt;ul&gt;&lt;li&gt;WF_ROUTE_between_grid&lt;br&gt;&lt;/li&gt;&lt;li style=&quot;text-align: left;&quot;&gt;run_rte_between_grid&lt;br&gt;&lt;/li&gt;&lt;li style=&quot;text-align: left;&quot;&gt;runci_between_grid&lt;/li&gt;&lt;/ul&gt;" style="whiteSpace=wrap;html=1;rounded=1;fillColor=#FFE599;" parent="1" vertex="1">
          <mxGeometry x="600" y="798" width="230" height="130" as="geometry" />
        </mxCell>
        <mxCell id="UZ7-40ng8phy-KJ8ZuQ1-3" value="Dependencies:&lt;div&gt;&lt;div&gt;mpi_module.f90&lt;/div&gt;&lt;div&gt;model_files.f90&lt;/div&gt;&lt;div&gt;sa_mesh_common.f90&lt;/div&gt;&lt;div&gt;FLAGS.f90&lt;/div&gt;&lt;div&gt;sa_mesh_run_within_tile.f90&lt;/div&gt;&lt;div&gt;sa_mesh_run_within_grid.f90&lt;/div&gt;&lt;div&gt;sa_mesh_run_between_grid.f90&lt;/div&gt;&lt;div&gt;model_dates.f90&lt;/div&gt;&lt;div&gt;output_files.f90&lt;/div&gt;&lt;div&gt;save_basin_output.f90&lt;/div&gt;&lt;div&gt;SIMSTATS.f90&lt;/div&gt;&lt;div&gt;input_forcing.f90&lt;/div&gt;&lt;div&gt;resume_run.f90&lt;/div&gt;&lt;/div&gt;&lt;div&gt;&lt;br&gt;&lt;/div&gt;" style="rounded=0;whiteSpace=wrap;html=1;" vertex="1" parent="1">
          <mxGeometry x="650" y="10" width="190" height="240" as="geometry" />
        </mxCell>
      </root>
    </mxGraphModel>
  </diagram>
</mxfile>
